<svg width="24" height="24" viewBox="0 0 24 24" fill="none" xmlns="http://www.w3.org/2000/svg">
<path fill-rule="evenodd" clip-rule="evenodd" d="M12 3L21.6139 10.795C22.0498 11.1485 22.1284 11.8034 21.7893 12.2579C21.4502 12.7123 20.822 12.7942 20.386 12.4407L19 11.3169V19.9575C19 20.5333 18.5523 21 18 21H6.00004C5.44776 21 5.00005 20.5333 5.00005 19.9575V11.3169L3.61398 12.4407C3.17803 12.7942 2.54976 12.7123 2.21069 12.2579C1.87162 11.8034 1.95016 11.1485 2.3861 10.795L12 3ZM11 18.9151H13V14.7452H11V18.9151ZM15 18.9151V12.6603H9.00003V18.9151H7.00004V10.2859L12 5.98202L17 10.2859V18.9151H15Z" fill="#8392A6"/>
</svg>
