<svg width="20" height="20" viewBox="0 0 20 20" fill="none" xmlns="http://www.w3.org/2000/svg">
<g opacity="0.3">
<mask id="mask0_69_36" style="mask-type:alpha" maskUnits="userSpaceOnUse" x="0" y="0" width="20" height="20">
<rect width="20" height="20" fill="white"/>
</mask>
<g mask="url(#mask0_69_36)">
<path d="M8.95835 19.375L7.79169 18.1875L9.31252 16.6667H6.52085C6.3403 17.1528 6.03821 17.5521 5.6146 17.8646C5.19099 18.1771 4.70835 18.3333 4.16669 18.3333C3.47224 18.3333 2.88196 18.0903 2.39585 17.6042C1.90974 17.1181 1.66669 16.5278 1.66669 15.8333C1.66669 15.2917 1.82294 14.809 2.13544 14.3854C2.44794 13.9618 2.84724 13.6597 3.33335 13.4792V6.52083C2.84724 6.34028 2.44794 6.03819 2.13544 5.61458C1.82294 5.19097 1.66669 4.70833 1.66669 4.16667C1.66669 3.47222 1.90974 2.88194 2.39585 2.39583C2.88196 1.90972 3.47224 1.66667 4.16669 1.66667C4.70835 1.66667 5.19099 1.82292 5.6146 2.13542C6.03821 2.44792 6.3403 2.84722 6.52085 3.33333H9.31252L7.79169 1.8125L8.95835 0.625L12.5 4.16667L8.95835 7.70833L7.79169 6.52083L9.31252 5H6.52085C6.39585 5.36111 6.20141 5.67361 5.93752 5.9375C5.67363 6.20139 5.36113 6.39583 5.00002 6.52083V13.4792C5.36113 13.6042 5.67363 13.7986 5.93752 14.0625C6.20141 14.3264 6.39585 14.6389 6.52085 15H9.31252L7.79169 13.4792L8.95835 12.2917L12.5 15.8333L8.95835 19.375ZM15.8334 18.3333C15.1389 18.3333 14.5486 18.0903 14.0625 17.6042C13.5764 17.1181 13.3334 16.5278 13.3334 15.8333C13.3334 15.2778 13.4896 14.7882 13.8021 14.3646C14.1146 13.941 14.5139 13.6458 15 13.4792V6.52083C14.5139 6.35417 14.1146 6.05903 13.8021 5.63542C13.4896 5.21181 13.3334 4.72222 13.3334 4.16667C13.3334 3.47222 13.5764 2.88194 14.0625 2.39583C14.5486 1.90972 15.1389 1.66667 15.8334 1.66667C16.5278 1.66667 17.1181 1.90972 17.6042 2.39583C18.0903 2.88194 18.3334 3.47222 18.3334 4.16667C18.3334 4.72222 18.1771 5.21181 17.8646 5.63542C17.5521 6.05903 17.1528 6.35417 16.6667 6.52083V13.4792C17.1528 13.6597 17.5521 13.9618 17.8646 14.3854C18.1771 14.809 18.3334 15.2917 18.3334 15.8333C18.3334 16.5278 18.0903 17.1181 17.6042 17.6042C17.1181 18.0903 16.5278 18.3333 15.8334 18.3333ZM4.16669 16.6667C4.4028 16.6667 4.60071 16.5868 4.76044 16.4271C4.92016 16.2674 5.00002 16.0694 5.00002 15.8333C5.00002 15.5972 4.92016 15.3993 4.76044 15.2396C4.60071 15.0799 4.4028 15 4.16669 15C3.93058 15 3.73266 15.0799 3.57294 15.2396C3.41321 15.3993 3.33335 15.5972 3.33335 15.8333C3.33335 16.0694 3.41321 16.2674 3.57294 16.4271C3.73266 16.5868 3.93058 16.6667 4.16669 16.6667ZM15.8334 16.6667C16.0695 16.6667 16.2674 16.5868 16.4271 16.4271C16.5868 16.2674 16.6667 16.0694 16.6667 15.8333C16.6667 15.5972 16.5868 15.3993 16.4271 15.2396C16.2674 15.0799 16.0695 15 15.8334 15C15.5972 15 15.3993 15.0799 15.2396 15.2396C15.0799 15.3993 15 15.5972 15 15.8333C15 16.0694 15.0799 16.2674 15.2396 16.4271C15.3993 16.5868 15.5972 16.6667 15.8334 16.6667ZM4.16669 5C4.4028 5 4.60071 4.92014 4.76044 4.76042C4.92016 4.60069 5.00002 4.40278 5.00002 4.16667C5.00002 3.93056 4.92016 3.73264 4.76044 3.57292C4.60071 3.41319 4.4028 3.33333 4.16669 3.33333C3.93058 3.33333 3.73266 3.41319 3.57294 3.57292C3.41321 3.73264 3.33335 3.93056 3.33335 4.16667C3.33335 4.40278 3.41321 4.60069 3.57294 4.76042C3.73266 4.92014 3.93058 5 4.16669 5ZM15.8334 5C16.0695 5 16.2674 4.92014 16.4271 4.76042C16.5868 4.60069 16.6667 4.40278 16.6667 4.16667C16.6667 3.93056 16.5868 3.73264 16.4271 3.57292C16.2674 3.41319 16.0695 3.33333 15.8334 3.33333C15.5972 3.33333 15.3993 3.41319 15.2396 3.57292C15.0799 3.73264 15 3.93056 15 4.16667C15 4.40278 15.0799 4.60069 15.2396 4.76042C15.3993 4.92014 15.5972 5 15.8334 5Z" fill="white"/>
</g>
</g>
</svg>
