<svg width="24" height="24" viewBox="0 0 24 24" fill="none" xmlns="http://www.w3.org/2000/svg">
<path fill-rule="evenodd" clip-rule="evenodd" d="M12 14C13.1046 14 14 13.1046 14 12C14 10.8954 13.1046 10 12 10C10.8954 10 10 10.8954 10 12C10 13.1046 10.8954 14 12 14ZM12 16C14.2091 16 16 14.2091 16 12C16 9.79086 14.2091 8 12 8C9.79086 8 8 9.79086 8 12C8 14.2091 9.79086 16 12 16Z" fill="#8392A6"/>
<path fill-rule="evenodd" clip-rule="evenodd" d="M11.5039 3.13177C11.8113 2.9561 12.1887 2.9561 12.4961 3.13177L19.4961 7.13177C19.8077 7.30982 20 7.64116 20 8.00002V16C20 16.3589 19.8077 16.6902 19.4961 16.8683L12.4961 20.8683C12.1887 21.0439 11.8113 21.0439 11.5039 20.8683L4.50386 16.8683C4.19229 16.6902 4 16.3589 4 16V8.00002C4 7.64116 4.19229 7.30982 4.50386 7.13177L11.5039 3.13177ZM6.50386 8.29242C6.19229 8.47046 6 8.8018 6 9.16066V14.8394C6 15.1982 6.19229 15.5296 6.50386 15.7076L11.5039 18.5648C11.8113 18.7404 12.1887 18.7404 12.4961 18.5648L17.4961 15.7076C17.8077 15.5296 18 15.1982 18 14.8394V9.16066C18 8.8018 17.8077 8.47046 17.4961 8.29242L12.4961 5.43527C12.1887 5.2596 11.8113 5.2596 11.5039 5.43527L6.50386 8.29242Z" fill="#8392A6"/>
</svg>
